<?xml version="1.0" standalone="no"?>
<!DOCTYPE svg PUBLIC "-//W3C//DTD SVG 20010904//EN"
 "http://www.w3.org/TR/2001/REC-SVG-20010904/DTD/svg10.dtd">
<svg version="1.0" xmlns="http://www.w3.org/2000/svg"
 width="1366.000000pt" height="695.000000pt" viewBox="0 0 1366.000000 695.000000"
 preserveAspectRatio="xMidYMid meet">

<g transform="translate(0.000000,695.000000) scale(0.100000,-0.100000)"
fill="#000000" stroke="none">
<path d="M5831 4548 c-104 -140 -156 -270 -171 -423 -14 -154 15 -257 105
-375 73 -96 73 -92 7 -145 -62 -50 -203 -125 -233 -125 -37 0 -34 -31 6 -64
l38 -32 -49 -23 c-64 -30 -114 -68 -114 -87 0 -13 10 -15 63 -9 126 14 199
-28 266 -153 50 -93 108 -148 209 -197 49 -24 62 -35 62 -52 0 -24 32 -63 51
-63 31 0 -20 -152 -53 -158 -20 -4 -25 10 -41 129 -9 62 -16 84 -27 85 -23 1
-38 -14 -60 -60 -52 -103 -126 -175 -165 -160 -28 11 -47 64 -53 146 -4 73 -7
79 -26 76 -13 -2 -33 -26 -57 -68 -44 -79 -101 -145 -129 -153 -31 -8 -56 22
-69 82 -16 77 -14 112 14 195 32 95 36 233 7 259 -40 37 -61 -31 -62 -200 0
-88 -3 -113 -13 -113 -8 0 -22 -8 -31 -19 -21 -23 -118 -67 -168 -76 l-36 -7
6 49 c13 93 7 256 -10 288 -30 56 -75 90 -120 90 -35 0 -45 -6 -73 -37 -40
-47 -55 -97 -55 -179 1 -107 56 -190 147 -219 53 -17 55 -21 33 -58 -62 -102
-179 -92 -235 19 -34 66 -46 180 -22 207 25 27 49 91 42 112 -17 54 -62 18
-74 -61 -9 -57 -35 -87 -98 -115 -47 -20 -68 -17 -88 12 -33 50 -12 139 36
151 25 7 24 23 -1 23 -28 0 -57 -32 -70 -79 -8 -33 -7 -49 8 -93 l19 -53 54 0
c41 0 62 6 87 24 18 13 35 21 38 18 2 -2 9 -29 14 -59 18 -112 63 -180 133
-199 74 -20 138 11 183 86 21 36 32 45 62 51 78 13 140 35 181 64 24 18 44 30
45 28 1 -2 8 -38 14 -81 15 -99 39 -137 88 -137 43 0 101 50 147 126 17 30 36
53 42 51 5 -2 13 -30 16 -61 9 -77 34 -110 85 -114 52 -4 100 36 155 129 23
38 43 69 46 69 2 0 2 -4 -2 -9 -3 -5 -1 -12 3 -15 5 -3 12 -31 16 -62 8 -73
30 -114 60 -114 33 0 57 31 82 108 l21 67 44 5 c24 3 54 11 66 18 28 15 32 8
44 -76 12 -88 33 -116 88 -120 39 -3 46 1 84 41 60 62 85 95 79 102 -3 3 -1 5
5 5 6 0 13 -23 15 -50 9 -95 89 -135 140 -70 l24 30 22 -30 c19 -25 30 -30 62
-30 52 0 100 42 157 138 46 77 53 95 38 101 -6 2 -26 -23 -45 -56 -68 -118
-126 -172 -165 -157 -21 8 -41 49 -50 102 -4 24 -12 41 -17 40 -6 -2 -17 -29
-25 -58 -7 -30 -22 -62 -33 -72 -65 -54 -112 81 -61 180 31 61 69 66 91 11 7
-16 16 -29 21 -29 16 0 9 47 -9 71 -42 51 -127 10 -184 -91 -89 -157 -165
-198 -198 -108 -6 18 -14 66 -17 105 -6 69 -7 73 -29 69 -12 -2 -33 -12 -47
-21 -16 -10 -40 -15 -64 -13 -33 3 -38 6 -41 31 -3 28 -43 64 -60 53 -5 -3
-45 13 -90 35 -93 46 -152 104 -190 187 -30 67 -69 122 -87 122 -7 0 -32 9
-56 19 -24 10 -66 22 -93 26 l-50 7 35 21 c28 18 48 22 116 21 46 0 83 1 83 3
0 2 -29 17 -64 34 -36 17 -72 39 -81 49 -15 17 -12 20 58 54 40 19 109 61 153
92 43 32 105 75 136 96 57 38 119 111 153 178 10 19 21 37 25 40 4 3 22 50 40
105 26 78 34 117 34 180 1 112 -14 146 -107 243 -44 46 -77 85 -75 88 3 2 38
-11 79 -30 41 -19 121 -49 179 -68 83 -26 112 -41 142 -70 21 -21 38 -44 38
-51 0 -8 -18 -22 -40 -32 -22 -10 -40 -22 -40 -26 0 -19 22 -16 91 12 121 49
284 72 469 66 194 -7 263 -27 383 -115 35 -25 51 -32 59 -24 14 14 -4 37 -45
58 -28 15 -28 16 -11 36 42 45 170 132 257 173 121 57 168 72 252 80 l70 6
-30 -22 c-16 -13 -71 -63 -122 -113 -80 -77 -97 -99 -123 -164 -45 -106 -54
-177 -36 -271 17 -88 50 -171 68 -171 7 0 29 -25 48 -56 78 -125 249 -267 393
-329 43 -18 64 -32 60 -40 -5 -16 -96 -62 -135 -70 -20 -4 -28 -12 -28 -26 0
-18 4 -20 38 -14 46 7 113 -6 150 -31 l27 -19 -35 -3 c-78 -5 -240 -63 -240
-85 0 -9 37 -5 75 9 18 7 18 6 6 -9 -9 -11 -10 -17 -2 -17 25 0 7 -20 -61 -72
-93 -70 -180 -125 -238 -151 -37 -17 -41 -21 -23 -24 47 -9 289 148 412 267
22 21 36 25 84 25 54 0 57 1 57 25 0 39 -28 70 -83 95 l-51 22 30 18 c71 45
121 110 74 98 -34 -9 -121 26 -205 82 -115 77 -121 83 -110 100 6 8 33 47 61
88 89 127 118 196 133 315 22 171 -33 547 -83 570 -28 13 -211 -2 -284 -23
-128 -37 -311 -134 -419 -223 -42 -34 -44 -34 -75 -19 -91 42 -149 51 -333 51
-166 0 -261 -10 -378 -39 -19 -5 -28 1 -51 34 -38 54 -53 63 -213 121 -189 68
-257 104 -282 146 -31 53 -51 45 -120 -48z m110 -40 c14 -32 51 -79 92 -120
68 -67 97 -116 97 -161 0 -22 -8 -16 -69 43 -77 76 -157 128 -172 113 -7 -7 9
-24 45 -52 75 -56 186 -187 186 -219 0 -22 -5 -20 -60 31 -65 61 -199 133
-226 123 -13 -5 -14 -9 -4 -21 7 -8 16 -15 21 -15 36 0 216 -136 241 -183 13
-25 -23 -126 -71 -197 -51 -76 -58 -79 -126 -46 -103 51 -178 182 -192 336 -8
82 41 221 110 314 49 67 84 105 98 106 3 0 16 -24 30 -52z m2058 -69 c32 -100
37 -195 17 -320 -10 -57 -24 -124 -32 -149 -27 -86 -140 -210 -217 -239 -25
-10 -29 -7 -66 42 -57 77 -74 114 -67 151 8 40 95 148 149 186 96 67 91 62 74
72 -25 14 -92 -26 -161 -95 -34 -34 -66 -71 -73 -82 -11 -19 -12 -18 -12 8 -1
15 6 42 15 60 26 51 130 179 174 215 39 32 50 55 31 66 -13 8 -108 -81 -161
-149 -24 -30 -45 -54 -47 -51 -3 2 5 26 16 52 39 88 268 301 327 304 5 0 20
-32 33 -71z m39 -471 c-9 -100 -72 -231 -173 -353 l-25 -30 -40 45 c-21 25
-39 50 -40 55 0 6 17 17 37 24 80 29 199 173 224 271 7 28 15 50 17 50 3 0 2
-28 0 -62z m-2245 -123 c35 -39 62 -59 97 -72 28 -10 50 -21 50 -25 0 -3 -19
-21 -41 -39 l-42 -33 -23 30 c-81 100 -144 220 -144 274 0 20 6 14 28 -28 15
-29 49 -78 75 -107z m-765 -710 c16 -14 38 -44 47 -67 21 -52 23 -172 5 -248
l-13 -52 -39 5 c-74 10 -139 83 -154 175 -13 84 50 212 104 212 11 0 34 -11
50 -25z m382 -62 c0 -46 -12 -103 -21 -103 -5 0 -9 29 -9 65 0 51 3 65 15 65
10 0 15 -10 15 -27z m674 -234 c-2 -4 -11 -6 -19 -2 -16 5 -20 25 -8 37 9 9
34 -24 27 -35z"/>
<path d="M7291 4024 c-12 -15 -21 -33 -21 -40 0 -21 28 -17 40 6 21 39 56 25
100 -40 42 -61 60 -74 60 -42 0 23 -55 108 -83 127 -33 23 -73 19 -96 -11z"/>
<path d="M6375 4018 c-36 -20 -105 -92 -105 -110 0 -29 18 -21 66 26 53 53 79
64 103 42 39 -35 58 -3 21 34 -22 22 -54 25 -85 8z"/>
<path d="M6160 3693 c0 -9 12 -30 28 -46 l27 -29 -25 7 c-14 4 -37 15 -52 26
-49 34 -67 15 -26 -28 l21 -23 -21 0 c-11 0 -33 5 -47 12 -19 8 -29 8 -37 0
-15 -15 47 -52 88 -52 l31 0 -5 -48 c-5 -58 9 -90 67 -150 74 -76 191 -117
316 -110 55 3 60 5 64 28 5 35 -18 159 -36 195 -9 17 -33 54 -55 83 -46 62
-100 91 -168 92 -44 1 -44 1 -20 15 41 23 111 19 150 -10 45 -33 54 -21 12 16
-27 24 -41 29 -82 29 -28 0 -67 -7 -87 -15 -32 -14 -38 -14 -53 0 -22 20 -30
19 -30 -2 -1 -15 -3 -15 -19 5 -23 26 -41 29 -41 5z m141 -102 c-21 -38 -24
-125 -7 -190 9 -35 14 -66 11 -69 -9 -10 -83 47 -103 80 -48 77 -39 119 37
168 53 35 77 40 62 11z m97 4 c21 -15 21 -17 6 -41 -15 -23 -15 -26 0 -43 28
-30 17 -75 -19 -76 -11 0 -7 -52 6 -77 17 -31 40 -48 68 -48 32 0 54 21 69 65
l10 30 11 -28 c6 -16 11 -44 11 -64 l0 -36 -67 7 c-102 9 -141 23 -157 54 -37
73 -38 192 -2 246 19 30 33 32 64 11z"/>
<path d="M7497 3690 c-25 -20 -28 -20 -72 -6 -50 17 -122 8 -159 -19 -29 -22
-13 -29 23 -11 33 18 126 22 136 6 4 -6 -9 -10 -33 -10 -68 0 -155 -79 -186
-168 -9 -23 -17 -82 -18 -130 l-3 -87 62 -3 c63 -3 164 18 216 45 36 18 114
90 129 117 19 35 27 87 18 112 -9 21 -6 23 45 34 50 10 76 32 55 45 -5 3 -27
1 -47 -4 -56 -16 -61 -14 -30 14 47 45 29 68 -23 30 -40 -29 -78 -35 -45 -7
40 33 41 74 2 47 -18 -12 -22 -12 -32 1 -9 13 -14 13 -38 -6z m-72 -121 c26
-56 24 -193 -3 -229 -23 -31 -80 -51 -152 -53 l-55 -2 -3 32 c-2 18 1 41 7 50
9 16 10 15 11 -7 1 -79 116 -56 139 27 15 53 14 60 -9 66 -24 6 -27 39 -5 61
8 8 15 21 15 29 0 8 -7 20 -15 27 -20 16 -19 27 3 33 40 11 49 6 67 -34z m80
12 c97 -36 100 -109 9 -200 -30 -30 -57 -52 -60 -49 -3 3 0 33 5 65 11 56 6
106 -15 181 -8 27 -3 27 61 3z"/>
<path d="M6030 3253 c-57 -10 -35 -19 48 -18 203 1 457 -31 511 -64 30 -19 0
-27 -71 -19 -217 23 -280 24 -382 6 -108 -19 -171 -37 -162 -45 3 -3 38 3 78
13 119 31 539 22 531 -11 -2 -6 -56 -13 -120 -16 -118 -7 -233 -29 -286 -56
-39 -20 -28 -27 14 -9 82 34 189 49 314 44 107 -4 126 -8 155 -28 44 -31 109
-37 166 -15 43 16 48 16 84 0 56 -25 138 -17 180 18 54 46 62 39 53 -50 -4
-43 -8 -146 -7 -229 1 -235 17 -243 64 -34 47 211 93 332 120 315 17 -11 50
-93 61 -154 9 -46 7 -68 -16 -158 -22 -86 -25 -110 -16 -130 11 -23 13 -24 34
-10 29 19 35 44 36 151 1 83 4 94 45 182 41 85 67 117 83 101 3 -3 16 -75 29
-159 13 -84 31 -174 40 -200 19 -58 57 -92 94 -83 29 7 84 57 108 98 9 15 19
27 23 27 4 0 12 -22 19 -50 13 -54 22 -65 63 -75 22 -6 32 -2 56 24 l29 31 20
-27 c45 -62 128 -21 194 95 43 75 54 69 64 -35 5 -49 13 -87 19 -86 5 1 15 37
21 80 6 43 18 93 25 111 l14 33 40 -30 c65 -48 90 -48 178 -3 4 2 7 -12 7 -30
0 -58 28 -136 55 -154 45 -29 89 -4 165 94 l25 32 7 -47 c5 -34 15 -55 33 -70
35 -30 51 -29 87 7 30 31 31 31 45 11 43 -62 98 -47 178 46 81 95 103 163 74
227 -15 32 -69 52 -98 36 -42 -22 -66 -107 -33 -118 8 -2 12 7 12 25 0 57 54
95 88 61 30 -30 -4 -131 -75 -226 -58 -77 -114 -81 -134 -9 -6 23 -15 51 -19
62 l-8 20 -7 -20 c-31 -93 -41 -110 -68 -113 -24 -3 -30 2 -43 35 -14 31 -14
46 -5 89 11 48 41 94 61 94 14 0 40 -30 40 -46 0 -8 7 -14 15 -14 21 0 19 23
-6 54 -25 32 -68 35 -94 6 -10 -11 -23 -20 -29 -20 -6 0 -29 -32 -51 -71 -43
-77 -94 -129 -125 -129 -34 0 -60 56 -60 128 0 76 -12 85 -76 53 -62 -29 -78
-27 -128 19 -61 57 -61 57 -101 -45 -7 -18 -9 -16 -17 13 -14 53 -40 42 -87
-37 -50 -84 -95 -131 -126 -131 -26 0 -38 12 -53 58 -11 31 -9 37 20 73 24 30
32 52 36 93 3 32 0 56 -7 60 -12 8 -45 -7 -74 -32 -27 -24 -96 -16 -128 14
-14 13 -30 24 -37 24 -17 0 -25 -44 -18 -99 6 -45 3 -53 -33 -108 -95 -142
-144 -103 -187 147 -13 74 -24 148 -24 164 0 25 3 28 25 22 41 -11 28 10 -18
28 -45 17 -199 35 -303 36 -35 0 -68 6 -79 14 -18 13 -17 15 20 26 22 7 119
14 215 17 174 5 238 -3 379 -43 16 -5 22 -4 17 4 -3 6 -48 21 -99 34 -79 19
-116 23 -257 22 -91 -1 -198 -7 -238 -14 -53 -9 -77 -9 -85 -1 -6 6 -8 13 -4
17 14 14 152 36 297 46 278 19 315 23 303 31 -18 12 -351 -10 -484 -32 -64
-10 -133 -28 -155 -39 -23 -12 -32 -21 -21 -22 29 0 20 -47 -17 -88 -32 -34
-39 -37 -89 -37 -45 0 -60 5 -81 24 -38 35 -33 58 14 77 70 28 62 77 -16 94
-66 15 -114 -4 -114 -47 0 -19 9 -28 40 -41 25 -11 40 -24 40 -35 0 -27 -43
-65 -84 -73 -48 -8 -111 14 -111 40 0 11 -9 23 -20 27 -19 7 -19 8 3 8 16 1
22 7 22 22 0 26 -40 65 -62 61 -8 -2 -60 8 -114 22 -157 39 -373 57 -474 39z
m889 -44 c55 -19 29 -59 -39 -59 -41 0 -70 16 -70 40 0 30 51 39 109 19z m352
-154 c-19 -33 -53 -136 -81 -247 -7 -27 -17 -48 -22 -48 -15 0 -5 63 25 164
15 48 27 106 27 127 0 38 1 39 36 39 l36 0 -21 -35z m-73 -19 c-3 -25 -13 -52
-22 -62 -16 -15 -17 -15 -12 7 3 13 8 41 11 62 9 54 29 48 23 -7z m300 29 c3
-2 -6 -22 -20 -42 -13 -21 -30 -53 -37 -70 -17 -43 -37 -42 -45 1 -4 18 -17
55 -31 81 l-24 48 76 -7 c42 -3 79 -8 81 -11z m378 -240 c-23 -18 -36 -11 -36
19 0 34 11 39 34 16 21 -21 21 -21 2 -35z m194 28 c0 -33 -31 -88 -58 -102
-12 -7 -21 -25 -25 -51 -9 -72 -59 -104 -91 -58 -29 41 -17 133 22 181 22 25
41 21 60 -13 22 -39 32 -38 32 4 0 25 7 39 22 50 31 22 38 20 38 -11z m-680
-189 c0 -14 -4 -23 -10 -19 -5 3 -10 15 -10 26 0 10 5 19 10 19 6 0 10 -12 10
-26z"/>
<path d="M5642 3008 c2 -13 8 -23 13 -23 6 0 11 10 13 23 2 15 -2 22 -13 22
-11 0 -15 -7 -13 -22z"/>
<path d="M6262 3008 c2 -13 8 -23 13 -23 6 0 11 10 13 23 2 15 -2 22 -13 22
-11 0 -15 -7 -13 -22z"/>
<path d="M8594 2967 c-4 -10 -2 -23 3 -28 14 -14 24 13 13 32 -7 11 -10 10
-16 -4z"/>
</g>
</svg>
